<svg width="24" height="24" viewBox="0 0 24 24" fill="none" xmlns="http://www.w3.org/2000/svg">
<path d="M6.11499 5.19001L6.43399 7.10301C6.6395 8.33684 7.22548 9.47558 8.10999 10.36L9.74999 12L9.36299 12.775C9.14599 13.208 9.23099 13.731 9.57299 14.073L10.921 15.421C11.131 15.631 11.25 15.918 11.25 16.216V17.305C11.25 17.731 11.49 18.12 11.872 18.311L12.025 18.387C12.458 18.604 12.981 18.519 13.323 18.177L14.046 17.454C15.1609 16.3389 15.9517 14.9418 16.334 13.412C16.3837 13.2137 16.3765 13.0054 16.3132 12.811C16.2498 12.6166 16.133 12.444 15.976 12.313L14.646 11.205C14.395 10.995 14.064 10.906 13.741 10.96L12.571 11.155C12.3944 11.1844 12.2134 11.1712 12.043 11.1166C11.8725 11.062 11.7176 10.9675 11.591 10.841L11.296 10.546C11.1915 10.4415 11.1087 10.3175 11.0521 10.181C10.9956 10.0445 10.9665 9.89825 10.9665 9.75051C10.9665 9.60277 10.9956 9.45648 11.0521 9.31999C11.1087 9.1835 11.1915 9.05948 11.296 8.95501L11.426 8.82301C11.5931 8.65587 11.8087 8.54562 12.0421 8.50793C12.2754 8.47023 12.5147 8.507 12.726 8.61301L13.329 8.91501C13.4809 8.99131 13.6531 9.01779 13.8209 8.9907C13.9888 8.9636 14.1438 8.88431 14.2641 8.76408C14.3843 8.64385 14.4636 8.4888 14.4907 8.32094C14.5178 8.15309 14.4913 7.98096 14.415 7.82901L14.25 7.50001L15.506 6.66301C16.1573 6.22845 16.684 5.63145 17.034 4.93101L17.18 4.63901M6.11499 5.19001C4.6971 6.4153 3.69705 8.05262 3.25437 9.87355C2.81168 11.6945 2.94843 13.6082 3.64554 15.3476C4.34266 17.0871 5.56537 18.5656 7.14307 19.5768C8.72078 20.588 10.5748 21.0816 12.4464 20.9885C14.3181 20.8955 16.114 20.2206 17.5837 19.0579C19.0533 17.8952 20.1234 16.3027 20.6446 14.5027C21.1657 12.7026 21.112 10.7848 20.491 9.01678C19.8699 7.24873 18.7124 5.71765 17.18 4.63901M6.11499 5.19001C7.74849 3.77442 9.83845 2.99668 12 3.00001C13.929 3.00001 15.716 3.60601 17.18 4.63901" stroke="#263A1E" stroke-width="1.5" stroke-linecap="round" stroke-linejoin="round"/>
</svg>
